<?xml version="1.0" encoding="UTF-8"?><svg id="a" xmlns="http://www.w3.org/2000/svg" viewBox="0 0 887.49 752.75"><path d="M840.93,113.76c-29.07-57.51-80.35-96.12-140.68-105.93-69.38-11.3-155.77-17.65-208.85,34.09-59.56,58-34.77,153.74-10.94,220.71,11.39,31.99,27.86,61.91,43.8,90.85,18.97,34.46,38.61,70.09,49.27,108.85,8.92,32.49-4.51,70.24-31.14,87.8l-13.84,8.58-35.99,13.25c-.41.11-.81.17-1.22.27l-42.07,6.13-4.78.41-42.62-4.97-35.74-13.33c-35.68-14.38-61.16-57.24-55.64-93.53,4.33-28.39,23.46-49.78,43.72-72.44,15.73-17.57,32-35.74,40.77-57.58,32.81-81.61-7.48-162.36-43.02-233.59l-2.46-4.93C311.74,22.68,217.42-7.52,143.78,1.87,73.9,10.74,26.2,51.67,12.88,114.16c-17.46,82.17-30.74,196.08,55.23,236.53,35.15,16.54,79.35,14.28,121.33-6.24,43.75-21.4,75.23-57.99,84.2-97.9,8.77-39.01-11.45-86.63-50.32-118.47-33.41-27.37-72.49-35.21-104.52-20.93-36.34,16.19-54.86,53.22-47.21,94.34,6.81,36.53,35.2,74.5,83.29,76.96,17.18.66,35.87-10.1,43.95-25.47,6.24-11.85,5.2-24.22-2.93-34.85-8.52-11.2-20.86-12.36-32.77-13.5l-5.67-.56v6.98l2.48.43c8.77,1.51,24.29,5.52,29.69,15.44,2.75,5.02,2.59,11.22-.46,18.43-4.22,9.97-11.13,15.85-20.5,17.46-20.76,3.61-47.73-13.76-59.47-26.57-23.98-26.23-18.13-63.54-.46-85.32,17.26-21.22,42.04-25.42,66.32-11.13,31.82,18.81,53.36,43.61,59.09,68.08,3.95,16.87.58,33.64-9.97,49.86-17.45,26.83-52.73,49.59-85.81,55.34-22.72,3.98-42.8-.15-58.22-11.85-46.61-35.43-29.31-117.19-18.97-166.03l1.86-8.79c11.59-56.26,58.41-71.46,85.29-75.51,63.78-9.58,137.05,21.6,163.39,69.56,2.59,4.71,5.2,9.39,7.8,14.07,28.04,50.37,54.5,97.94,52.3,156.68-1.28,34.14-21.96,63.36-41.95,91.63-27.32,38.59-55.56,78.52-31.82,129.92,12.54,27.17,37.96,50.92,63.33,59.11l38.59,11.24,20.39.9c.37.04.73.08,1.1.12,1.66.15,3.36.1,5.03.21-.63-.04-1.26-.06-1.89-.1,1.34.1,2.71.07,4.05.14l1.84.08c-1.33-.06-2.68-.03-4-.12,4.55.3,9.08.75,13.68.75.62,0,1.26-.11,1.88-.11l2.57.11,1.14-.17c2.7-.07,5.46-.49,8.17-.66-.29.02-.58.03-.87.05,1.34-.08,2.69-.21,4.03-.32-1.05.08-2.11.2-3.16.27,4.8-.31,9.58-.52,14.43-1.16.55-.07,1.1-.12,1.66-.2.37-.05.75-.13,1.12-.18l22.87-1.7,39.53-11.34,15.95-8.31c33.42-18.89,52.63-63.05,44.67-102.73-9.16-45.7-28.32-88.3-46.86-129.5-20.21-44.9-41.09-91.34-49.1-141.93-5.5-34.98-10.01-117.99,66.52-133.36,69.64-14,168.49-6.51,217.63,60.74,48.6,66.47,37.39,157.89-26.07,212.65-22.54,19.38-55.39,2.09-76.67-18.66-39.63-38.66-63.44-88.53-63.74-133.42-.09-13.61,4.15-25.12,12.29-33.26,8.87-8.89,22.09-13.67,37.45-13.46,36.3.18,79.7,8.4,80.28,46.59.76,46.25-9.8,72.66-31.39,78.46-12.1,3.27-22.07,1.97-29.56-3.95-17.3-13.64-18.28-48-17.9-62.14l-5.98-.38c-2.32,23.26-6.64,66.54,30.99,78.76,17.36,5.65,32.42,3.16,44.77-7.36,25.46-21.67,32.68-74.12,28.12-103.65-4.42-28.78-38.89-42.53-49.34-46.06-39.12-13.18-78.92-10.99-103.87,5.74-18.9,12.66-29.35,32.54-31.08,59.07-4.67,71.8,39.83,155.2,103.49,193.99,22.95,13.98,46.89,17.59,71.18,10.71,33.71-9.51,66.33-39.57,87.27-80.4,28.78-56.22,28.14-125.04-1.71-184.08Z" fill="#ec1c24"/><path d="M819.37,402.1c-35.16-16.57-79.41-14.28-121.41,6.27-43.74,21.39-75.21,57.97-84.18,97.84-8.77,39.03,11.45,86.63,50.32,118.47,33.42,27.38,72.52,35.17,104.57,20.93,36.31-16.2,54.84-53.22,47.18-94.31-6.8-36.56-35.2-74.53-83.32-76.97-.62-.05-1.26-.05-1.89-.05-16.46,0-34.27,10.69-42.07,25.51-6.24,11.86-5.2,24.24,2.93,34.88,8.52,11.18,20.86,12.38,32.77,13.52l5.67.54v-7l-2.48-.43c-8.77-1.52-24.28-5.54-29.69-15.44-2.74-5.05-2.59-11.24.46-18.43,4.22-9.99,11.13-15.85,20.52-17.45,20.74-3.66,47.73,13.73,59.45,26.57,23.98,26.19,18.16,63.48.5,85.28-17.29,21.28-42.11,25.43-66.36,11.15-31.81-18.78-53.34-43.59-59.09-68.04-3.95-16.88-.6-33.68,9.97-49.91,17.51-26.84,52.82-49.59,85.87-55.34,22.69-3.85,42.76.19,58.15,11.89,46.55,35.36,29.34,117.03,19.05,165.86l-1.89,8.98c-11.62,56.26-58.47,71.46-85.37,75.51-63.63,9.55-137.01-21.6-163.36-69.56l-7.72-13.95c-28.05-50.4-54.54-98.03-52.38-156.85,1.28-34.12,21.96-63.35,41.95-91.6,27.32-38.62,55.56-78.54,31.82-129.96-12.54-27.13-37.96-50.86-63.33-59.1l-38.59-11.22-44.58-1.98-49.42,4.04-39.58,11.36-15.95,8.29c-33.42,18.9-52.63,63.06-44.67,102.73,9.16,45.7,28.32,88.3,46.86,129.5,20.21,44.92,41.09,91.36,49.1,141.97,5.5,34.98,10.01,118.01-66.52,133.34-69.62,14-168.48,6.51-217.63-60.71-48.61-66.49-37.39-157.9,26.07-212.65,22.55-19.41,55.41-2.12,76.67,18.65,39.6,38.59,63.45,88.45,63.79,133.42.09,13.6-4.15,25.08-12.28,33.22-8.81,8.82-21.62,13.46-37.06,13.46h-.41c-36.33-.14-79.75-8.33-80.34-46.55-.76-46.25,9.8-72.66,31.39-78.46,12.12-3.26,22.11-1.93,29.58,3.96,17.27,13.6,18.25,47.96,17.87,62.1l5.98.38c2.32-23.26,6.64-66.55-30.99-78.76-17.34-5.62-32.41-3.18-44.77,7.36-25.46,21.69-32.68,74.12-28.12,103.65,4.42,28.77,38.93,42.56,49.4,46.08,39.1,13.16,78.86,10.96,103.81-5.75,18.9-12.67,29.35-32.54,31.08-59.09,4.67-71.81-39.83-155.19-103.49-193.96-22.93-13.96-46.86-17.56-71.16-10.71-33.72,9.53-66.33,39.57-87.23,80.39-28.81,56.21-28.19,125.04,1.66,184.09,29.07,57.51,80.35,96.13,140.7,105.93,26.14,4.26,54.69,7.79,82.97,7.79,46.78,0,92.81-9.69,125.86-41.91,59.59-57.95,34.78-153.7,10.94-220.68-11.37-31.97-27.85-61.88-43.78-90.81-18.97-34.47-38.59-70.12-49.25-108.9-8.97-32.49,4.45-70.25,31.14-87.81l13.79-8.58,36.42-13.37,42.86-6.28,4.78-.41,42.62,4.98,35.74,13.33c35.68,14.37,61.16,57.21,55.64,93.55-4.3,28.4-23.45,49.79-43.74,72.44-15.73,17.56-31.99,35.73-40.75,57.55-32.81,81.64,7.48,162.38,43.02,233.6l2.46,4.91c37.78,75.72,132.07,105.79,205.73,96.54,69.87-8.87,117.59-49.8,130.9-112.28,17.52-82.13,30.86-196.01-55.18-236.53Z" fill="#2e3191"/></svg>