<?xml version="1.0" encoding="UTF-8"?><svg id="a" xmlns="http://www.w3.org/2000/svg" viewBox="0 0 1361.36 380.29"><path d="M497.41,38.93V14.76h8.47v36.2c0,1.99-.49,4.1-1.48,6.36-1.04,2.33-2.77,4.32-5.24,5.95-2.44,1.71-5.62,2.56-9.54,2.56-3.46,0-6.39-.74-8.78-2.19-2.47-1.47-4.3-3.32-5.54-5.51-1.21-2.22-1.84-4.51-1.84-6.88,0-2.66.71-5.14,2.11-7.45,1.43-2.3,3.4-4.13,5.87-5.46,2.52-1.36,5.27-2.04,8.23-2.04,2.47,0,5.02.88,7.73,2.63h0ZM482.65,51.03c0,2.13.77,3.95,2.22,5.47,1.43,1.44,3.15,2.18,5.24,2.18s3.73-.74,5.16-2.24c1.43-1.48,2.14-3.29,2.14-5.42s-.71-3.95-2.11-5.46c-1.45-1.41-3.15-2.11-5.18-2.11h-.08c-2.08,0-3.78.7-5.16,2.11-1.45,1.47-2.22,3.29-2.22,5.46h0ZM521.49,14.76h9.21c-.14.48-.22.97-.22,1.48,0,1.8.44,3.41,1.29,4.84.79,1.41,1.73,2.56,2.82,3.46,1.1.95,2.55,2.03,4.42,3.25,2.88,1.91,5.05,3.77,6.55,5.61,1.51,1.84,2.55,3.76,3.13,5.73.58,1.99.85,4.33.85,7.02,0,3.44-.44,6.42-1.34,8.93-.96,2.54-2.22,4.59-3.84,6.16-1.59,1.54-3.4,2.7-5.46,3.46-2.03.77-4.2,1.15-6.5,1.15-2.88,0-5.6-.6-8.12-1.77-2.52-1.22-4.58-3.08-6.14-5.61-1.54-2.44-2.3-5.48-2.3-9.12,0-1.76.25-3.58.74-5.47h9.24c-.52,1.85-.79,3.56-.79,5.11,0,3.11.74,5.51,2.19,7.2,1.45,1.67,3.26,2.5,5.35,2.5,3.15,0,5.24-1.23,6.23-3.72.99-2.48,1.48-5.05,1.48-7.69,0-2.4-.22-4.33-.63-5.81-.44-1.5-1.59-3.15-3.43-4.94-1.76-1.73-3.43-3.08-5.05-4.13-1.54-1.04-2.88-1.96-4-2.76-1.15-.7-2.25-1.7-3.29-2.99-1.12-1.4-1.81-2.69-2.09-3.87-.3-1.22-.41-2.47-.41-3.77,0-1.89.03-3.31.11-4.25h0ZM560.73,45.64h6.03c-2.33-1.77-4.14-4.02-5.4-6.7-1.26-2.76-1.89-6.23-1.89-10.42,0-3.5.6-6.38,1.84-8.64,1.21-2.26,2.77-3.91,4.66-4.98,1.95-1.03,3.95-1.55,6.03-1.55,1.32,0,2.74.33,4.25,1,1.51.62,2.85,1.77,4.03,3.46,1.18-1.69,2.52-2.85,4.03-3.52,1.51-.63,2.96-.93,4.39-.93,3.54,0,6.2,1.48,8.01,4.46,2.3-2.98,5.65-4.46,9.98-4.46,2,0,3.89.49,5.68,1.48,1.78.99,3.24,2.45,4.33,4.39,1.07,1.89,1.62,4.15,1.62,6.82,0,3.02-.77,6.35-2.28,9.98h-9.27c1.56-3.19,2.36-6.2,2.36-8.98,0-2.33-.44-4-1.29-5.04-.9-1.04-2.03-1.56-3.43-1.56-1.18,0-2.14.4-2.85,1.22-.74.79-1.1,1.84-1.1,3.1v8.58h-8.5v-8.58c0-1.55-.38-2.65-1.12-3.32-.82-.67-1.7-1-2.63-1-1.04,0-1.97.36-2.77,1.07-.79.71-1.18,1.8-1.18,3.25v8.58h-8.45l-.05-7.91c0-3.32-1.15-4.99-3.46-4.99-1.54,0-2.52.76-2.99,2.28-.44,1.51-.66,3.37-.66,5.61,0,2.4.14,4.46.41,6.16.3,1.69,1.02,3.33,2.17,4.95,1.12,1.66,2.93,3.1,5.46,4.32,2.52,1.26,5.9,2.19,10.09,2.77,4,.55,7.32,1.1,9.93,1.62,2.66.53,5.24,1.38,7.76,2.56,2.58,1.22,4.74,2.95,6.47,5.14,1.73,2.22,2.72,5.06,2.99,8.52h-10.64c-.38-2.99-1.73-5.27-4.03-6.82-2.3-1.56-5.24-2.62-8.86-3.15-3.54-.49-7.84-.75-12.89-.75h-16.78v-7.98h0ZM632.49,14.76h9.19c-.14.48-.19.97-.19,1.48,0,1.8.41,3.41,1.26,4.84.79,1.41,1.76,2.56,2.85,3.46,1.07.95,2.52,2.03,4.39,3.25,2.88,1.91,5.07,3.77,6.55,5.61,1.54,1.84,2.58,3.76,3.13,5.73.58,1.99.85,4.33.85,7.02,0,3.44-.44,6.42-1.34,8.93-.93,2.54-2.22,4.59-3.84,6.16-1.59,1.54-3.4,2.7-5.43,3.46-2.06.77-4.22,1.15-6.53,1.15-2.88,0-5.6-.6-8.12-1.77-2.52-1.22-4.55-3.08-6.12-5.61-1.56-2.44-2.33-5.48-2.33-9.12,0-1.76.25-3.58.77-5.47h9.21c-.52,1.85-.79,3.56-.79,5.11,0,3.11.74,5.51,2.22,7.2,1.45,1.67,3.24,2.5,5.35,2.5,3.15,0,5.24-1.23,6.2-3.72.99-2.48,1.51-5.05,1.51-7.69,0-2.4-.22-4.33-.63-5.81-.47-1.5-1.62-3.15-3.46-4.94-1.76-1.73-3.43-3.08-5.05-4.13-1.54-1.04-2.85-1.96-4-2.76-1.12-.7-2.22-1.7-3.26-2.99-1.12-1.4-1.84-2.69-2.11-3.87-.27-1.22-.41-2.47-.41-3.77,0-1.89.03-3.31.14-4.25h0ZM671.74,45.49l5.81.93c-2.09-1.7-3.79-3.92-5.13-6.66-1.32-2.69-1.97-6.1-1.97-10.27,0-3.66.74-6.71,2.17-9.11,1.45-2.41,3.32-4.18,5.62-5.31,2.25-1.11,4.69-1.66,7.29-1.66,3.65,0,6.58,1.34,8.78,4.03,3.26-2.73,7.3-4.1,12.12-4.1,2.74,0,5.24.62,7.49,1.87,2.33,1.26,4.17,3,5.46,5.21,1.32,2.29,1.97,4.83,1.97,7.58,0,3.02-.63,5.61-1.89,7.8-1.23,2.26-2.99,4-5.32,5.22-2.36,1.29-5.1,1.93-8.2,1.93-4.77,0-8.36-1-10.75-3-2.44-2.04-3.95-4.15-4.52-6.36-.63-2.11-.93-3.95-.93-5.47v-2.58c-.05-2.03-.58-3.36-1.56-3.98-.99-.69-2-1.02-3.04-1.02-3.65,0-5.46,2.99-5.46,8.93,0,3.32.25,6.05.71,8.16.41,2.08,1.54,3.92,3.4,5.54,1.78,1.59,4.58,2.67,8.36,3.24,3.51.47,6.53.96,9.05,1.5,2.5.51,5.04,1.37,7.65,2.56,2.52,1.22,4.74,2.96,6.64,5.22,1.84,2.25,2.99,5.14,3.43,8.64h-10.61c-.58-3.77-2.77-6.57-6.61-8.36-3.59-1.73-8.64-2.59-15.14-2.59s-11.66.16-14.81.48v-8.38h0ZM698.91,28.07c0,2.56.6,4.5,1.84,5.81,1.23,1.28,2.8,1.92,4.63,1.92,2.03,0,3.67-.69,4.94-2.07,1.23-1.36,1.84-3.11,1.84-5.28,0-1.62-.25-3.04-.77-4.25-.58-1.18-1.34-2.11-2.28-2.78-.93-.66-2.06-1-3.32-1-1.84,0-3.46.66-4.8,1.93-1.4,1.28-2.08,3.18-2.08,5.72h0ZM759.78,39.76h-9.27v-13.31c0-1.99-.47-3.5-1.4-4.54-.99-.99-2.11-1.48-3.32-1.48-1.53,0-2.77.56-3.76,1.7-1.04,1.19-1.56,2.88-1.56,5.05v22.1c0,4.85,1.02,9.89,3.04,15.07h-8.53c-1.07-2.07-1.89-4.17-2.43-6.29-.58-2.07-.93-3.92-1.07-5.54-.14-1.6-.22-3.4-.22-5.39v-18.52c0-3.46.69-6.34,2.04-8.64,1.37-2.28,3.15-3.95,5.32-5.06,2.17-1.03,4.5-1.55,7.02-1.55,3.67,0,6.83,1.29,9.52,3.89,2.77-2.61,6.17-3.89,10.23-3.89,2.17,0,4.31.49,6.42,1.48,2.09,1.07,3.81,2.72,5.18,4.98,1.37,2.26,2.06,5.18,2.06,8.79v18.52c0,3.36-.28,6.43-.82,9.16-.58,2.73-1.56,5.42-2.91,8.06h-8.53c.91-2.22,1.56-4.18,1.97-5.88.44-1.7.74-3.25.88-4.65.14-1.39.19-2.91.19-4.54v-22.1c0-2.17-.49-3.85-1.48-5.05-.99-1.14-2.28-1.7-3.84-1.7-1.21,0-2.3.49-3.24,1.48-1.01,1.04-1.51,2.55-1.51,4.54v13.31h0ZM800.72,14.76v4.11h14.01l-.33,17.15c2.36.41,4.44,1.26,6.23,2.56,1.78,1.3,3.15,2.96,4.11,4.94.93,1.97,1.4,4.17,1.4,6.57,0,2.09-.33,4.03-.99,5.88-.66,1.84-1.7,3.5-3.18,4.98-1.43,1.45-3.29,2.63-5.62,3.54-2.33.89-5.07,1.34-8.17,1.34-5.73,0-10.37-1.3-13.9-3.92-3.54-2.52-5.29-6.22-5.29-11.08,0-3.65.96-6.55,2.82-8.73,1.86-2.15,4.06-3.69,6.66-4.59,2.6-.89,5.07-1.38,7.43-1.48v-10h-8.94c-1.62,0-2.82-.32-3.59-.92-.77-.6-1.15-2.06-1.15-4.33v-6.02h8.5ZM798.17,50.61c0,1.45.33,2.77,1.02,3.95.66,1.25,1.7,2.24,3.18,2.96,1.4.77,3.21,1.15,5.37,1.15,2.03,0,4.06-.49,6.12-1.48,2.06-1,3.1-3.07,3.1-6.23,0-2.52-.82-4.47-2.5-5.9-1.65-1.4-3.87-2.1-6.64-2.1-1.95,0-3.65.32-5.1.97-1.45.66-2.58,1.56-3.35,2.69-.79,1.18-1.21,2.5-1.21,3.98h0ZM848.9,64.34h-8.5c-1.54-3.87-2.69-7.45-3.51-10.74-.82-3.29-1.4-6.21-1.76-8.8-.3-2.55-.47-4.87-.47-6.94,0-2.74.11-5.2.33-7.38.28-2.17.85-4.25,1.7-6.28.99-2.28,2.3-4.25,3.92-5.87,1.59-1.62,3.46-2.85,5.51-3.73,2.14-.84,4.42-1.26,6.86-1.26,2.69,0,5.13.49,7.32,1.48,2.22.99,4.09,2.29,5.62,3.91,1.53,1.62,2.71,3.41,3.54,5.39.8,1.95,1.34,4.05,1.59,6.29.22,2.3.36,4.79.36,7.44s-.27,5.62-.77,8.64c-.49,3.02-1.15,6.01-2,8.99-.88,3.02-1.84,5.96-2.99,8.84h-8.5c1.18-3.25,2.14-6.21,2.85-8.93.74-2.69,1.29-5.39,1.62-8.09.38-2.67.58-5.51.58-8.53,0-3.65-.22-6.77-.66-9.38-.41-2.63-1.32-4.77-2.69-6.43-1.34-1.71-3.32-2.57-5.87-2.57s-4.42.85-5.73,2.57c-1.37,1.66-2.28,3.8-2.74,6.43-.44,2.65-.66,5.77-.66,9.38,0,4.38.44,8.65,1.34,12.86.91,4.25,2.14,8.49,3.7,12.68h0ZM901.34,36.03h9.24c-.14.51-.22,1.27-.22,2.32,0,.8.58,2.04,1.7,3.69.99,1.55,1.73,2.82,2.19,3.81s.74,2.32.74,3.98c0,2.6-.66,5.13-1.95,7.57-1.26,2.47-3.15,4.47-5.62,6.02-2.52,1.62-5.57,2.43-9.1,2.43-3.84,0-6.91-.7-9.27-2.1-2.36-1.38-4.09-3.08-5.18-5.06-1.07-1.99-1.78-3.89-2.11-5.75-.27-1.89-.41-3.67-.41-5.36V14.76h8.5v31.74c0,2.6.22,4.77.63,6.53.41,1.73,1.21,3.1,2.39,4.09,1.18,1.04,2.85,1.56,5.02,1.56,1.48,0,2.82-.38,4.03-1.15,1.18-.69,2.14-1.67,2.82-2.96.66-1.22.99-2.56.99-4.02,0-1.74-.82-4.05-2.47-6.88-.33-.53-.66-1.1-.99-1.69-.38-.58-.66-1.12-.88-1.63-.19-.53-.28-1.06-.28-1.55,0-1.25.05-2.18.22-2.77h0ZM934.57,28.31h-8.5c-.14-.99-.19-1.96-.19-2.89,0-2.43.58-4.55,1.76-6.4,1.12-1.8,2.74-3.2,4.83-4.18,2.03-.99,4.31-1.48,6.8-1.48,3.73,0,6.77.99,9.13,2.96,2.41,2.06,3.62,5.1,3.62,9.1,0,.74-.05,1.82-.16,3.26-.08,1.44-.11,2.52-.11,3.24,0,1.08.3,2.14.93,3.18.36.62,1.21,1.43,2.58,2.41,1.4,1.04,2.52,1.95,3.37,2.72.85.77,1.62,1.92,2.3,3.44.71,1.58,1.07,3.48,1.07,5.73,0,3.11-.74,5.94-2.28,8.45-1.51,2.48-3.68,4.43-6.5,5.8-2.82,1.45-6.17,2.19-10.01,2.19-4.09,0-7.62-.71-10.59-2.11-3.04-1.34-5.29-3.15-6.83-5.47-1.53-2.37-2.3-4.95-2.3-7.77,0-5.91,2.41-10.3,7.21-13.18,3.21-1.93,7.32-3.11,12.4-3.5.03-1.12.05-2.82.05-5.09v-1.96c0-4.22-1.26-6.34-3.81-6.34-1.32,0-2.5.4-3.48,1.22-.99.85-1.48,2.19-1.48,4.03,0,1.18.05,2.06.19,2.63h0ZM932.63,49.68c0,2.51.88,4.63,2.69,6.36,1.7,1.76,4.22,2.63,7.57,2.63,2.77,0,5.16-.71,7.1-2.11,1.86-1.39,2.82-3.47,2.82-6.25,0-2.99-.96-5.29-2.91-6.92-1.95-1.66-4.3-2.48-7.1-2.48-1.7,0-3.32.36-4.88,1.07-1.56.71-2.8,1.73-3.76,3.03-1.04,1.33-1.53,2.88-1.53,4.68h0ZM976.17,14.76h9.19c-.11.48-.19.97-.19,1.48,0,1.8.44,3.41,1.29,4.84.77,1.41,1.73,2.56,2.82,3.46,1.07.95,2.55,2.03,4.39,3.25,2.88,1.91,5.07,3.77,6.58,5.61,1.51,1.84,2.55,3.76,3.1,5.73.58,1.99.88,4.33.88,7.02,0,3.44-.47,6.42-1.34,8.93-.96,2.54-2.25,4.59-3.84,6.16-1.59,1.54-3.43,2.7-5.46,3.46-2.06.77-4.22,1.15-6.53,1.15-2.88,0-5.57-.6-8.12-1.77-2.5-1.22-4.55-3.08-6.12-5.61-1.56-2.44-2.33-5.48-2.33-9.12,0-1.76.28-3.58.77-5.47h9.24c-.55,1.85-.79,3.56-.79,5.11,0,3.11.71,5.51,2.19,7.2,1.45,1.67,3.24,2.5,5.35,2.5,3.15,0,5.24-1.23,6.23-3.72.99-2.48,1.48-5.05,1.48-7.69,0-2.4-.22-4.33-.63-5.81-.47-1.5-1.62-3.15-3.46-4.94-1.73-1.73-3.4-3.08-5.02-4.13-1.54-1.04-2.88-1.96-4-2.76-1.15-.7-2.25-1.7-3.29-2.99-1.12-1.4-1.84-2.69-2.11-3.87-.28-1.22-.41-2.47-.41-3.77,0-1.89.05-3.31.14-4.25h0ZM1024.77,27.52v11.41c2.88-1.76,6.14-2.63,9.84-2.63,2.74,0,5.18.71,7.38,2.11,2.14,1.38,3.81,3.22,4.94,5.54,1.15,2.32,1.76,4.74,1.76,7.3,0,2.3-.6,4.58-1.76,6.88-1.18,2.19-2.99,4.05-5.46,5.51-2.44,1.45-5.43,2.19-8.94,2.19-3.15,0-6.03-.63-8.61-1.89-2.6-1.26-4.63-3.02-6.11-5.28-1.51-2.26-2.25-4.83-2.25-7.71v-24.68c0-4.29,1.15-7.28,3.4-8.99,2.25-1.7,4.96-2.56,8.14-2.56,1.32,0,4.11.4,8.34,1.15,1.62.34,3.07.52,4.33.52,2.61,0,4.8-.56,6.61-1.67v8.53c-1.76.92-3.84,1.37-6.25,1.37-1.51,0-3.35-.22-5.51-.63-.85-.22-2.03-.49-3.51-.86-1.48-.37-2.55-.56-3.15-.56-1.43,0-2.3.47-2.63,1.36-.38.95-.55,2.15-.55,3.61h0ZM1024.77,51.03c0,2.22.71,4.03,2.14,5.47,1.34,1.44,3.07,2.18,5.16,2.18,2.3,0,4.11-.77,5.46-2.32,1.32-1.56,1.97-3.35,1.97-5.33,0-1.4-.33-2.69-1.02-3.84-.63-1.17-1.56-2.08-2.71-2.72-1.15-.69-2.41-1.01-3.7-1.01h-.08c-2.03,0-3.76.7-5.18,2.11-1.34,1.48-2.03,3.29-2.03,5.46h0ZM1074.95,45.49l5.81.93c-2.08-1.7-3.78-3.92-5.13-6.66-1.29-2.69-1.95-6.1-1.95-10.27,0-3.66.71-6.71,2.14-9.11,1.45-2.41,3.32-4.18,5.62-5.31,2.25-1.11,4.69-1.66,7.29-1.66,3.65,0,6.58,1.34,8.78,4.03,3.26-2.73,7.29-4.1,12.12-4.1,2.74,0,5.24.62,7.49,1.87,2.33,1.26,4.17,3,5.48,5.21,1.29,2.29,1.95,4.83,1.95,7.58,0,3.02-.63,5.61-1.89,7.8-1.23,2.26-2.99,4-5.32,5.22-2.36,1.29-5.07,1.93-8.2,1.93-4.77,0-8.34-1-10.75-3-2.41-2.04-3.92-4.15-4.53-6.36-.63-2.11-.93-3.95-.93-5.47v-2.58c-.05-2.03-.58-3.36-1.56-3.98-.99-.69-2-1.02-3.04-1.02-3.65,0-5.46,2.99-5.46,8.93,0,3.32.25,6.05.74,8.16.41,2.08,1.51,3.92,3.37,5.54,1.78,1.59,4.58,2.67,8.36,3.24,3.51.47,6.55.96,9.05,1.5,2.5.51,5.05,1.37,7.65,2.56,2.52,1.22,4.74,2.96,6.64,5.22,1.84,2.25,2.99,5.14,3.43,8.64h-10.61c-.58-3.77-2.77-6.57-6.61-8.36-3.59-1.73-8.64-2.59-15.14-2.59s-11.66.16-14.81.48v-8.38h0ZM1102.13,28.07c0,2.56.63,4.5,1.84,5.81,1.26,1.28,2.8,1.92,4.63,1.92,2.03,0,3.67-.69,4.94-2.07,1.23-1.36,1.84-3.11,1.84-5.28,0-1.62-.25-3.04-.74-4.25-.58-1.18-1.34-2.11-2.3-2.78-.93-.66-2.06-1-3.32-1-1.84,0-3.43.66-4.8,1.93-1.4,1.28-2.09,3.18-2.09,5.72h0ZM1138.74,14.76h9.21c-.14.48-.22.97-.22,1.48,0,1.8.44,3.41,1.29,4.84.79,1.41,1.73,2.56,2.82,3.46,1.1.95,2.55,2.03,4.42,3.25,2.88,1.91,5.05,3.77,6.55,5.61,1.51,1.84,2.55,3.76,3.13,5.73.58,1.99.85,4.33.85,7.02,0,3.44-.44,6.42-1.34,8.93-.96,2.54-2.22,4.59-3.84,6.16-1.59,1.54-3.4,2.7-5.46,3.46-2.03.77-4.2,1.15-6.5,1.15-2.88,0-5.59-.6-8.12-1.77-2.52-1.22-4.58-3.08-6.14-5.61-1.54-2.44-2.3-5.48-2.3-9.12,0-1.76.25-3.58.74-5.47h9.24c-.52,1.85-.79,3.56-.79,5.11,0,3.11.74,5.51,2.22,7.2,1.43,1.67,3.21,2.5,5.32,2.5,3.15,0,5.24-1.23,6.23-3.72.99-2.48,1.48-5.05,1.48-7.69,0-2.4-.22-4.33-.63-5.81-.44-1.5-1.59-3.15-3.43-4.94-1.76-1.73-3.43-3.08-5.05-4.13-1.54-1.04-2.88-1.96-4-2.76-1.15-.7-2.25-1.7-3.29-2.99-1.12-1.4-1.81-2.69-2.09-3.87-.3-1.22-.41-2.47-.41-3.77,0-1.89.03-3.31.11-4.25h0ZM1201.98,14.76h8.75c-.27.67-.41,1.55-.41,2.63,0,.81.16,1.5.49,2.07.33.55.77.99,1.34,1.32.49.34,1.12.64,1.84.93.77.22,1.59.52,2.5.86,2.17.73,3.84,1.74,5.02,3.04,1.15,1.26,1.7,3.06,1.7,5.43,0,2.04-.74,3.8-2.25,5.25-1.54,1.45-3.43,2.47-5.68,3.04,2.36.71,4.28,1.99,5.81,3.84,1.54,1.84,2.3,4.17,2.3,6.98s-.88,5.44-2.63,7.82c-1.73,2.4-4.2,4.29-7.41,5.68-3.15,1.45-6.8,2.18-10.97,2.18-2.8,0-5.6-.38-8.39-1.15-2.8-.8-5.4-2.14-7.81-4.02-2.39-1.88-4.33-4.51-5.81-7.86s-2.22-7.51-2.22-12.46c0-4.26.69-8.68,2.11-13.23,1.37-4.61,3.29-8.71,5.73-12.35h9.41c-3.21,4.95-5.37,9.47-6.44,13.56-1.07,4.05-1.62,8.23-1.62,12.51,0,6.99,1.56,11.71,4.66,14.18,3.1,2.44,6.58,3.68,10.45,3.68s6.75-.88,8.69-2.61c2-1.76,2.99-3.83,2.99-6.25,0-1.18-.27-2.33-.85-3.47-.58-1.11-1.43-2.04-2.6-2.76-1.23-.77-2.74-1.15-4.61-1.15h-4.09v-7.08h5.43c2.14,0,3.76-.25,4.88-.74,1.12-.49,1.7-1.59,1.7-3.28,0-1.43-.33-2.41-.99-2.98-.69-.58-1.73-.97-3.04-1.21-1.45-.27-2.63-.53-3.48-.77-.85-.25-1.65-.66-2.39-1.23-.8-.51-1.48-1.29-2.06-2.3-.63-1.14-.93-2.48-.93-4.06,0-1.36.27-2.71.88-4.05h0ZM1243.14,30.01h-8.5c-.05-.36-.08-.82-.08-1.41,0-2.66.6-5.14,1.78-7.43,1.15-2.33,2.99-4.22,5.46-5.68,2.5-1.43,5.57-2.14,9.27-2.14,3.48,0,6.53.6,9.13,1.78,2.55,1.23,4.5,2.81,5.79,4.74,1.32,1.99,1.97,4.09,1.97,6.29,0,4.96-2.3,8.49-6.91,10.61,2.36.81,4.09,2.25,5.24,4.32,1.12,2.08,1.67,4.58,1.67,7.51s-.55,5.68-1.7,8.3c-1.12,2.6-2.91,4.73-5.35,6.36-2.5,1.71-5.68,2.56-9.52,2.56-3.37,0-6.44-.67-9.19-1.97-2.74-1.23-4.91-3.1-6.5-5.59-1.62-2.47-2.41-5.47-2.41-9,0-1.95.11-3.62.33-5.04h9.93c-.71,1.66-1.07,3.33-1.07,5.04,0,2.82.8,5.13,2.41,6.84,1.59,1.71,3.67,2.57,6.23,2.57,2.22,0,4.06-.82,5.54-2.5,1.4-1.65,2.11-4.17,2.11-7.57,0-2.21-.41-3.87-1.21-4.95-.79-1.08-1.59-1.76-2.47-2.04-.8-.3-1.48-.45-2-.45h-2.03v-7.05h2.17c1.56,0,2.88-.59,3.92-1.8,1.07-1.14,1.62-2.67,1.62-4.61,0-1.5-.33-2.78-1.02-3.87-.69-1.15-1.62-2.02-2.8-2.56-1.15-.58-2.39-.86-3.76-.86-2.85,0-4.88.91-6.17,2.7-1.26,1.8-1.89,4.09-1.89,6.88Z" fill="#2e3191" fill-rule="evenodd"/><path d="M1292.14,64.34h-8.53c-1.51-3.87-2.69-7.45-3.48-10.74-.82-3.29-1.43-6.21-1.76-8.8-.33-2.55-.49-4.87-.49-6.94,0-2.74.14-5.2.36-7.38.27-2.17.85-4.25,1.7-6.28.99-2.28,2.28-4.25,3.89-5.87,1.62-1.62,3.46-2.85,5.54-3.73,2.11-.84,4.39-1.26,6.83-1.26,2.72,0,5.16.49,7.35,1.48,2.19.99,4.06,2.29,5.6,3.91,1.53,1.62,2.71,3.41,3.56,5.39.79,1.95,1.32,4.05,1.59,6.29.22,2.3.33,4.79.33,7.44s-.25,5.62-.74,8.64c-.49,3.02-1.18,6.01-2.03,8.99-.85,3.02-1.84,5.96-2.96,8.84h-8.5c1.18-3.25,2.11-6.21,2.82-8.93.77-2.69,1.32-5.39,1.62-8.09.38-2.67.6-5.51.6-8.53,0-3.65-.22-6.77-.66-9.38-.41-2.63-1.32-4.77-2.69-6.43-1.37-1.71-3.32-2.57-5.9-2.57s-4.39.85-5.73,2.57c-1.34,1.66-2.28,3.8-2.72,6.43-.44,2.65-.66,5.77-.66,9.38,0,4.38.44,8.65,1.34,12.86.88,4.25,2.14,8.49,3.7,12.68h0ZM1344.57,36.03h9.24c-.16.51-.22,1.27-.22,2.32,0,.8.55,2.04,1.7,3.69.99,1.55,1.73,2.82,2.17,3.81.49.99.74,2.32.74,3.98,0,2.6-.66,5.13-1.95,7.57-1.26,2.47-3.13,4.47-5.62,6.02-2.5,1.62-5.54,2.43-9.11,2.43-3.81,0-6.91-.7-9.24-2.1-2.36-1.38-4.09-3.08-5.18-5.06-1.1-1.99-1.81-3.89-2.14-5.75-.25-1.89-.41-3.67-.41-5.36V14.76h8.5v31.74c0,2.6.22,4.77.63,6.53.41,1.73,1.21,3.1,2.41,4.09,1.18,1.04,2.85,1.56,4.99,1.56,1.48,0,2.82-.38,4.06-1.15,1.18-.69,2.11-1.67,2.82-2.96.66-1.22.96-2.56.96-4.02,0-1.74-.8-4.05-2.44-6.88-.36-.53-.69-1.1-.99-1.69-.38-.58-.69-1.12-.88-1.63-.19-.53-.3-1.06-.3-1.55,0-1.25.08-2.18.25-2.77h0ZM484.57,110.82h-8.61c-.11-.71-.17-1.73-.17-3.04,0-2.37.63-4.62,1.92-6.75,1.26-2.11,3.15-3.83,5.59-5.14,2.47-1.33,5.37-2,8.8-2,5.68,0,9.76,1.66,12.23,4.98,2.39,3.25,3.59,7.8,3.59,13.66v17.91c0,5.01-1.45,8.9-4.33,11.7-2.88,2.82-6.8,4.25-11.82,4.25-3.48,0-6.61-.69-9.41-2.06-2.8-1.37-4.94-3.31-6.5-5.8-1.62-2.51-2.41-5.48-2.41-8.93,0-1.89.11-3.52.36-4.91h9.85c-.69,1.67-1.02,3.44-1.02,5.35,0,2.82.85,5.07,2.47,6.7,1.67,1.66,3.7,2.48,6.11,2.48,1.95,0,3.81-.63,5.6-1.91,1.76-1.27,2.6-3.81,2.6-7.64v-20.2c0-2.84-.69-4.96-2.03-6.36-1.43-1.43-3.21-2.15-5.4-2.15-2.36,0-4.2.73-5.57,2.15-1.43,1.45-2.14,3.11-2.14,5,0,.96.08,1.85.27,2.7h0ZM549.16,95.3h8.47c0,3.36-1.07,5.95-3.24,7.75-2.14,1.85-5.62,3.65-10.39,5.43-4.77,1.8-8.42,3.32-10.92,4.59-2.5,1.29-4.5,3.25-6.03,5.88,1.95-1.59,4.31-2.39,7.1-2.39,3.59,0,6.58,1.48,8.94,4.46,2.5-2.98,6.11-4.46,10.86-4.46,2.39,0,4.53.59,6.42,1.76,1.84,1.14,3.29,2.84,4.39,5.1,1.04,2.22,1.56,4.88,1.56,7.95,0,4.55-1.62,9.05-4.8,13.51h-9.19c3.13-5.44,4.72-10.23,4.72-14.38,0-2.4-.52-4.14-1.56-5.21-1.04-1.1-2.19-1.65-3.51-1.65s-2.44.45-3.37,1.34c-.99.93-1.48,2.21-1.48,3.83v5.46h-8.5v-5.46c0-1.41-.52-2.63-1.56-3.67-1.04-1-2.39-1.5-4.06-1.5-1.48,0-2.85.6-4.11,1.77-1.21,1.18-1.84,2.98-1.84,5.43,0,1.85.36,4.02,1.02,6.54.6,2.48,1.73,4.99,3.4,7.5h-9.21c-2.91-5.95-4.39-11.42-4.39-16.43,0-3.5.52-6.61,1.56-9.34.99-2.74,2.6-5.2,4.8-7.36,2.22-2.18,5.1-4.13,8.66-5.8,1.89-.9,4-1.81,6.36-2.7,2.44-.85,4.17-1.55,5.18-2.07,1.04-.47,1.92-1.15,2.69-2.06.8-.93,1.48-2.21,2.03-3.82h0ZM604.74,120.3h-9.27v-13.31c0-1.99-.47-3.5-1.4-4.54-.99-.99-2.11-1.48-3.32-1.48-1.53,0-2.77.56-3.76,1.7-1.04,1.19-1.56,2.88-1.56,5.04v22.1c0,4.85,1.02,9.89,3.04,15.07h-8.5c-1.1-2.07-1.92-4.17-2.47-6.29-.58-2.07-.93-3.92-1.07-5.54-.14-1.6-.19-3.4-.19-5.39v-18.52c0-3.46.69-6.34,2.03-8.64,1.37-2.28,3.15-3.95,5.32-5.06,2.17-1.03,4.5-1.55,7.02-1.55,3.67,0,6.83,1.29,9.54,3.89,2.74-2.6,6.14-3.89,10.2-3.89,2.17,0,4.31.49,6.42,1.48,2.09,1.07,3.81,2.72,5.18,4.98,1.37,2.26,2.06,5.18,2.06,8.79v18.52c0,3.36-.28,6.43-.82,9.16-.58,2.73-1.56,5.42-2.91,8.06h-8.53c.91-2.22,1.56-4.18,1.98-5.88.44-1.7.74-3.25.88-4.65.14-1.38.19-2.91.19-4.54v-22.1c0-2.17-.49-3.85-1.48-5.04-.99-1.14-2.28-1.7-3.84-1.7-1.21,0-2.3.49-3.24,1.48-1.01,1.04-1.51,2.55-1.51,4.54v13.31h0ZM643.79,110.55h-8.5c-.03-.36-.05-.82-.05-1.41,0-2.66.58-5.14,1.76-7.43,1.18-2.33,3.02-4.22,5.46-5.68,2.5-1.43,5.59-2.14,9.27-2.14,3.48,0,6.53.6,9.13,1.78,2.55,1.23,4.5,2.81,5.81,4.74,1.32,1.99,1.97,4.09,1.97,6.29,0,4.96-2.3,8.49-6.94,10.61,2.36.81,4.11,2.25,5.24,4.32,1.12,2.09,1.7,4.58,1.7,7.51s-.58,5.68-1.7,8.3c-1.12,2.61-2.93,4.73-5.37,6.36-2.5,1.71-5.68,2.56-9.49,2.56-3.4,0-6.47-.67-9.19-1.97-2.77-1.23-4.94-3.1-6.53-5.59-1.62-2.47-2.41-5.47-2.41-8.99,0-1.95.11-3.62.36-5.05h9.93c-.74,1.66-1.1,3.33-1.1,5.05,0,2.82.82,5.13,2.44,6.84,1.59,1.71,3.67,2.56,6.2,2.56,2.22,0,4.09-.82,5.54-2.5,1.43-1.64,2.11-4.17,2.11-7.57,0-2.21-.38-3.87-1.21-4.95-.77-1.08-1.59-1.76-2.44-2.04-.82-.3-1.48-.45-2.03-.45h-2.03v-7.05h2.17c1.59,0,2.88-.59,3.92-1.8,1.1-1.14,1.62-2.67,1.62-4.61,0-1.49-.33-2.78-.99-3.87-.71-1.15-1.64-2.01-2.8-2.56-1.15-.58-2.41-.86-3.78-.86-2.82,0-4.88.9-6.14,2.7-1.29,1.8-1.92,4.09-1.92,6.88h0ZM689.15,108.07v11.41c2.91-1.76,6.17-2.63,9.87-2.63,2.74,0,5.18.71,7.35,2.11,2.17,1.39,3.81,3.22,4.96,5.54,1.15,2.32,1.76,4.74,1.76,7.29,0,2.3-.6,4.58-1.76,6.88-1.18,2.19-3.02,4.05-5.48,5.51-2.44,1.45-5.4,2.19-8.91,2.19-3.15,0-6.03-.63-8.61-1.89-2.61-1.26-4.63-3.02-6.12-5.28-1.51-2.26-2.25-4.83-2.25-7.71v-24.68c0-4.28,1.15-7.28,3.4-9,2.25-1.7,4.96-2.56,8.14-2.56,1.32,0,4.09.4,8.34,1.15,1.62.34,3.04.52,4.33.52,2.6,0,4.8-.56,6.61-1.67v8.54c-1.78.91-3.84,1.36-6.28,1.36-1.48,0-3.32-.22-5.48-.63-.85-.22-2.03-.49-3.51-.86-1.48-.37-2.55-.56-3.15-.56-1.43,0-2.3.47-2.63,1.36-.38.95-.58,2.15-.58,3.61h0ZM689.15,131.57c0,2.22.74,4.03,2.17,5.47,1.34,1.44,3.07,2.18,5.13,2.18,2.3,0,4.14-.77,5.48-2.32,1.32-1.56,1.97-3.34,1.97-5.33,0-1.4-.33-2.67-1.01-3.84-.66-1.17-1.56-2.08-2.72-2.71-1.18-.69-2.41-1.02-3.73-1.02h-.05c-2.03,0-3.76.7-5.18,2.11-1.37,1.48-2.06,3.29-2.06,5.46h0ZM719.67,95.3h8.5c-.14.53-.22,1.26-.22,2.21,0,.55.19,1.08.58,1.58.38.51.99.75,1.78.75.74,0,1.43-.22,2.03-.63.63-.37,1.44-1,2.43-1.91.93-.99,1.56-1.6,1.89-1.86,1.37-1.03,2.74-1.55,4.17-1.55.88,0,1.76.29,2.63.85.91.59,1.62,1.41,2.11,2.5,2.17-2.18,5.02-3.28,8.58-3.28,1.89,0,3.65.4,5.24,1.22,1.56.79,2.8,1.96,3.76,3.47.93,1.45,1.43,3.15,1.43,5.09v23.52c0,4.1-.82,7.61-2.44,10.49-1.54,2.82-3.76,4.98-6.69,6.44-2.88,1.45-6.25,2.19-10.06,2.19-4.03,0-7.46-.9-10.34-2.7-2.92-1.76-5.09-4.02-6.51-6.79-1.48-2.73-2.19-5.57-2.19-8.5,0-2.65.19-4.77.55-6.39h9.91c-.79,1.8-1.21,3.94-1.21,6.39,0,2.14.49,4.02,1.48,5.68.96,1.65,2.25,2.91,3.92,3.81,1.62.89,3.35,1.34,5.27,1.34,2.91,0,5.29-.99,7.1-2.98,1.81-1.93,2.71-4.58,2.71-7.91v-22.38c0-3.23-1.1-4.85-3.26-4.85-.99,0-1.84.33-2.58,1.02-.74.71-1.1,1.86-1.1,3.46v8.5h-8.5v-8.12c0-1.58-.11-2.78-.33-3.63-.27-.91-.88-1.36-1.81-1.36-.74,0-1.65.77-2.77,2.29-1.26,1.74-2.41,3.04-3.44,3.88-1.1.85-2.69,1.26-4.74,1.26-1.26,0-2.5-.25-3.7-.75-1.21-.58-2.25-1.55-3.13-2.89-.85-1.43-1.26-3.32-1.26-5.62,0-1.69.08-2.98.22-3.82h0ZM775.77,126.18h6.01c-2.3-1.77-4.11-4.02-5.37-6.71-1.26-2.76-1.89-6.22-1.89-10.42,0-3.5.6-6.38,1.81-8.64,1.23-2.26,2.8-3.91,4.69-4.98,1.92-1.03,3.92-1.55,6.01-1.55,1.34,0,2.74.33,4.25,1,1.54.62,2.88,1.77,4.03,3.46,1.18-1.69,2.52-2.85,4.06-3.52,1.51-.63,2.96-.93,4.39-.93,3.54,0,6.2,1.48,7.98,4.46,2.3-2.98,5.65-4.46,10.01-4.46,1.98,0,3.87.49,5.68,1.48,1.78.99,3.24,2.45,4.31,4.39,1.1,1.89,1.62,4.15,1.62,6.82,0,3.02-.74,6.35-2.28,9.98h-9.24c1.56-3.19,2.33-6.2,2.33-8.98,0-2.33-.41-4-1.26-5.05-.91-1.04-2.06-1.56-3.46-1.56-1.15,0-2.11.4-2.85,1.22-.71.79-1.07,1.84-1.07,3.1v8.58h-8.5v-8.58c0-1.55-.38-2.65-1.15-3.32-.8-.67-1.67-1-2.63-1-1.04,0-1.95.36-2.77,1.07-.77.71-1.18,1.8-1.18,3.25v8.58h-8.42l-.08-7.91c0-3.32-1.15-4.99-3.46-4.99-1.51,0-2.5.75-2.96,2.28-.44,1.51-.66,3.37-.66,5.61,0,2.4.14,4.46.41,6.16.3,1.69,1.02,3.33,2.14,4.95,1.15,1.66,2.96,3.1,5.46,4.32,2.55,1.26,5.92,2.19,10.09,2.77,4.03.55,7.32,1.1,9.93,1.62,2.66.53,5.27,1.39,7.79,2.56,2.55,1.22,4.72,2.95,6.47,5.14,1.7,2.22,2.69,5.06,2.96,8.51h-10.61c-.38-2.99-1.73-5.27-4.03-6.81-2.3-1.56-5.27-2.62-8.86-3.15-3.56-.49-7.84-.75-12.89-.75h-16.78v-7.98h0ZM856.09,144.88h-8.5c-1.53-3.87-2.69-7.45-3.51-10.74-.82-3.29-1.4-6.21-1.76-8.8-.3-2.55-.47-4.87-.47-6.94,0-2.74.11-5.2.33-7.38.3-2.17.85-4.25,1.7-6.28.99-2.28,2.3-4.25,3.92-5.87,1.59-1.62,3.45-2.85,5.51-3.73,2.14-.85,4.42-1.26,6.86-1.26,2.69,0,5.13.49,7.32,1.48,2.22.99,4.09,2.29,5.62,3.91,1.54,1.62,2.71,3.41,3.54,5.39.8,1.95,1.34,4.05,1.59,6.29.22,2.3.36,4.79.36,7.45s-.25,5.62-.77,8.64c-.49,3.02-1.15,6.01-2,8.99-.88,3.02-1.84,5.96-2.99,8.84h-8.5c1.18-3.25,2.14-6.21,2.85-8.93.74-2.69,1.29-5.39,1.62-8.09.38-2.67.58-5.51.58-8.53,0-3.65-.22-6.77-.66-9.38-.41-2.63-1.32-4.77-2.69-6.43-1.34-1.71-3.32-2.56-5.87-2.56s-4.41.85-5.73,2.56c-1.37,1.66-2.28,3.8-2.74,6.43-.44,2.65-.66,5.77-.66,9.38,0,4.37.44,8.65,1.34,12.86.91,4.25,2.14,8.49,3.7,12.68h0ZM938,95.3l.05,35.13c0,5.01-1.43,8.9-4.31,11.7-2.88,2.82-6.83,4.25-11.82,4.25-3.48,0-6.61-.69-9.41-2.06-2.8-1.37-4.96-3.31-6.5-5.8-1.62-2.51-2.41-5.48-2.41-8.93,0-1.89.11-3.51.33-4.89h9.85c-.66,1.66-.99,3.44-.99,5.33,0,2.82.82,5.07,2.47,6.72,1.65,1.65,3.68,2.47,6.12,2.47,3.43,0,5.62-1.1,6.64-3.25.99-2.12,1.48-4.22,1.48-6.29v-13.33c0-1.33-.6-2.44-1.76-3.35-1.18-.89-2.6-1.34-4.28-1.34s-3.1.6-4.14,1.8c-.99,1.18-1.51,2.65-1.59,4.39h-9.1c-.05-.4-.08-.9-.08-1.55,0-3.4,1.18-6.12,3.56-8.09,2.3-1.95,5.13-2.91,8.45-2.91s6.39,1.27,8.94,3.84v-13.83h8.5ZM969.4,116.57h9.24c-.14.51-.19,1.27-.19,2.32,0,.8.55,2.04,1.7,3.69.99,1.55,1.7,2.82,2.17,3.81.49.99.74,2.32.74,3.98,0,2.61-.66,5.13-1.95,7.57-1.26,2.47-3.15,4.47-5.62,6.02-2.52,1.62-5.54,2.43-9.1,2.43-3.81,0-6.91-.7-9.27-2.1-2.33-1.38-4.06-3.08-5.16-5.06-1.1-1.97-1.81-3.89-2.14-5.75-.25-1.89-.41-3.67-.41-5.36v-32.81h8.5v31.74c0,2.6.22,4.77.63,6.53.41,1.73,1.21,3.1,2.41,4.09,1.18,1.04,2.85,1.56,4.99,1.56,1.48,0,2.82-.38,4.06-1.15,1.18-.69,2.11-1.67,2.82-2.96.63-1.22.96-2.56.96-4.02,0-1.74-.82-4.05-2.44-6.88-.36-.53-.69-1.1-1.02-1.69-.36-.58-.66-1.12-.85-1.63-.19-.53-.3-1.06-.3-1.55,0-1.25.08-2.18.22-2.77h0ZM1002.66,110.82h-8.61c-.11-.71-.17-1.73-.17-3.04,0-2.37.63-4.62,1.92-6.75,1.26-2.11,3.15-3.83,5.62-5.14,2.44-1.33,5.35-2,8.78-2,5.68,0,9.76,1.66,12.23,4.98,2.39,3.25,3.59,7.8,3.59,13.66v17.91c0,5.01-1.45,8.9-4.33,11.7-2.88,2.82-6.8,4.25-11.82,4.25-3.48,0-6.61-.69-9.38-2.06-2.8-1.37-4.96-3.31-6.53-5.8-1.62-2.51-2.41-5.48-2.41-8.93,0-1.89.14-3.52.36-4.91h9.85c-.66,1.67-1.02,3.44-1.02,5.35,0,2.82.85,5.07,2.47,6.7,1.67,1.66,3.7,2.48,6.12,2.48,1.95,0,3.81-.63,5.59-1.91,1.76-1.27,2.6-3.81,2.6-7.64v-20.2c0-2.84-.69-4.96-2.03-6.36-1.43-1.43-3.21-2.15-5.4-2.15-2.36,0-4.2.73-5.57,2.15-1.43,1.45-2.14,3.11-2.14,5,0,.96.08,1.85.27,2.7h0ZM1037.24,126.18h6.01c-2.3-1.77-4.11-4.02-5.37-6.71-1.26-2.76-1.92-6.22-1.92-10.42,0-3.5.63-6.38,1.84-8.64,1.23-2.26,2.8-3.91,4.69-4.98,1.92-1.03,3.92-1.55,6.01-1.55,1.34,0,2.74.33,4.25,1,1.51.62,2.88,1.77,4.03,3.46,1.18-1.69,2.52-2.85,4.06-3.52,1.48-.63,2.96-.93,4.39-.93,3.54,0,6.2,1.48,7.98,4.46,2.3-2.98,5.65-4.46,10.01-4.46,1.97,0,3.87.49,5.65,1.48,1.81.99,3.26,2.45,4.33,4.39,1.07,1.89,1.62,4.15,1.62,6.82,0,3.02-.74,6.35-2.28,9.98h-9.27c1.59-3.19,2.36-6.2,2.36-8.98,0-2.33-.41-4-1.26-5.05-.93-1.04-2.06-1.56-3.46-1.56-1.15,0-2.11.4-2.85,1.22-.71.79-1.07,1.84-1.07,3.1v8.58h-8.5v-8.58c0-1.55-.38-2.65-1.15-3.32-.79-.67-1.7-1-2.63-1-1.04,0-1.95.36-2.77,1.07-.8.71-1.18,1.8-1.18,3.25v8.58h-8.42l-.08-7.91c0-3.32-1.15-4.99-3.46-4.99-1.51,0-2.5.75-2.96,2.28-.44,1.51-.66,3.37-.66,5.61,0,2.4.14,4.46.41,6.16.3,1.69,1.02,3.33,2.14,4.95,1.12,1.66,2.96,3.1,5.46,4.32,2.55,1.26,5.92,2.19,10.09,2.77,4.03.55,7.32,1.1,9.93,1.62,2.66.53,5.24,1.39,7.79,2.56,2.55,1.22,4.72,2.95,6.47,5.14,1.7,2.22,2.69,5.06,2.96,8.51h-10.61c-.38-2.99-1.73-5.27-4.03-6.81-2.3-1.56-5.27-2.62-8.86-3.15-3.56-.49-7.84-.75-12.92-.75h-16.76v-7.98h0ZM1117.57,144.88h-8.5c-1.54-3.87-2.69-7.45-3.51-10.74-.82-3.29-1.4-6.21-1.76-8.8-.3-2.55-.47-4.87-.47-6.94,0-2.74.11-5.2.33-7.38.27-2.17.85-4.25,1.7-6.28.99-2.28,2.3-4.25,3.92-5.87,1.59-1.62,3.46-2.85,5.51-3.73,2.11-.85,4.39-1.26,6.86-1.26,2.69,0,5.13.49,7.32,1.48,2.22.99,4.09,2.29,5.62,3.91,1.54,1.62,2.72,3.41,3.54,5.39.79,1.95,1.32,4.05,1.59,6.29.22,2.3.33,4.79.33,7.45s-.25,5.62-.74,8.64c-.49,3.02-1.15,6.01-2,8.99-.88,3.02-1.84,5.96-2.99,8.84h-8.5c1.18-3.25,2.11-6.21,2.85-8.93.74-2.69,1.29-5.39,1.62-8.09.38-2.67.58-5.51.58-8.53,0-3.65-.22-6.77-.66-9.38-.41-2.63-1.32-4.77-2.69-6.43-1.37-1.71-3.32-2.56-5.87-2.56s-4.42.85-5.76,2.56c-1.34,1.66-2.25,3.8-2.72,6.43-.44,2.65-.66,5.77-.66,9.38,0,4.37.44,8.65,1.34,12.86.9,4.25,2.14,8.49,3.7,12.68Z" fill="#2e3191" fill-rule="evenodd"/><path d="M522.2,279.62h-11.05l-4.39-11.41h-20.1l-4.14,11.41h-10.75l19.58-50.25h10.72l20.13,50.25h0ZM503.5,259.74l-6.91-18.65-6.8,18.65h13.71ZM560.62,279.62h-9.62v-18.58c0-3.93-.22-6.46-.63-7.62-.41-1.15-1.1-2.04-2-2.7-.93-.63-2.03-.95-3.35-.95-1.67,0-3.15.45-4.5,1.36-1.32.93-2.22,2.14-2.72,3.65-.49,1.51-.74,4.29-.74,8.36v16.48h-9.62v-36.39h8.94v5.35c3.18-4.13,7.18-6.18,12.01-6.18,2.11,0,4.06.38,5.81,1.15,1.76.77,3.1,1.74,4,2.93.88,1.19,1.51,2.54,1.86,4.05.36,1.51.55,3.66.55,6.47v22.62h0ZM587.08,243.23v7.68h-6.58v14.67c0,2.96.05,4.69.19,5.18.11.49.41.89.85,1.22.44.32.99.48,1.62.48.91,0,2.19-.31,3.89-.92l.82,7.46c-2.25.96-4.8,1.44-7.62,1.44-1.73,0-3.29-.29-4.69-.86-1.4-.59-2.41-1.34-3.07-2.26-.66-.93-1.1-2.18-1.37-3.76-.19-1.12-.3-3.39-.3-6.8v-15.85h-4.41v-7.68h4.41v-7.24l9.68-5.62v12.86h6.58ZM593.77,238.3v-8.93h9.62v8.93h-9.62ZM593.77,279.62v-36.39h9.62v36.39h-9.62ZM612.17,266.21v-9.62h18.92v9.62h-18.92ZM649.52,279.62l-17.96-50.25h11.02l12.7,37.2,12.31-37.2h10.75l-17.99,50.25h-10.83ZM696.75,260.91c0-3.2.79-6.29,2.39-9.28,1.56-2.99,3.81-5.28,6.69-6.85,2.91-1.56,6.12-2.37,9.68-2.37,5.51,0,10.04,1.8,13.55,5.37,3.51,3.58,5.28,8.09,5.28,13.56s-1.77,10.06-5.33,13.69c-3.54,3.63-8.01,5.43-13.41,5.43-3.35,0-6.53-.75-9.54-2.25-3.04-1.51-5.35-3.73-6.91-6.64-1.59-2.91-2.39-6.47-2.39-10.65h0ZM706.65,261.42c0,3.62.85,6.39,2.55,8.31,1.73,1.91,3.84,2.88,6.36,2.88s4.61-.97,6.31-2.88c1.7-1.92,2.58-4.72,2.58-8.36s-.88-6.31-2.58-8.23c-1.7-1.92-3.81-2.88-6.31-2.88s-4.63.96-6.36,2.88c-1.7,1.92-2.55,4.69-2.55,8.28h0ZM682.65,239.28v-8.93h9.62v8.93h-9.62ZM682.65,280.61v-36.39h9.62v36.39h-9.62ZM740.64,279.62v-50.25h9.63v50.25h-9.63ZM781.22,268.05l9.6,1.59c-1.23,3.52-3.18,6.21-5.84,8.05-2.66,1.85-6.01,2.76-9.98,2.76-6.34,0-11.02-2.06-14.07-6.2-2.39-3.32-3.59-7.5-3.59-12.55,0-6.03,1.56-10.76,4.72-14.18,3.15-3.41,7.16-5.13,11.98-5.13,5.4,0,9.68,1.8,12.81,5.37,3.13,3.58,4.63,9.05,4.5,16.44h-24.13c.05,2.85.85,5.07,2.33,6.65,1.48,1.59,3.35,2.4,5.54,2.4,1.51,0,2.77-.41,3.81-1.23,1.04-.84,1.81-2.15,2.33-3.98h0ZM781.77,258.32c-.08-2.8-.79-4.92-2.17-6.36-1.34-1.45-3.02-2.18-4.99-2.18-2.11,0-3.84.77-5.21,2.3-1.37,1.52-2.06,3.61-2.03,6.24h14.4ZM832.31,279.62h-9.62v-18.58c0-3.93-.22-6.46-.63-7.62-.41-1.15-1.1-2.04-2-2.7-.93-.63-2.06-.95-3.35-.95-1.67,0-3.18.45-4.5,1.36-1.32.93-2.22,2.14-2.72,3.65-.49,1.51-.74,4.29-.74,8.36v16.48h-9.62v-36.39h8.94v5.35c3.18-4.13,7.18-6.18,11.98-6.18,2.14,0,4.09.38,5.84,1.15,1.76.77,3.1,1.74,3.98,2.93.91,1.19,1.54,2.54,1.89,4.05.36,1.51.55,3.66.55,6.47v22.62h0ZM873.83,254l-9.52,1.7c-.3-1.89-1.04-3.32-2.17-4.28-1.15-.96-2.6-1.44-4.41-1.44-2.41,0-4.31.82-5.73,2.48-1.43,1.66-2.14,4.43-2.14,8.32,0,4.3.71,7.36,2.17,9.15,1.45,1.77,3.4,2.67,5.84,2.67,1.84,0,3.32-.52,4.5-1.56,1.18-1.04,1.97-2.82,2.47-5.36l9.46,1.6c-.99,4.35-2.88,7.62-5.65,9.84-2.8,2.22-6.53,3.32-11.22,3.32-5.32,0-9.57-1.67-12.72-5.03-3.18-3.36-4.77-8.01-4.77-13.96s1.59-10.68,4.77-14.03c3.18-3.36,7.49-5.03,12.89-5.03,4.44,0,7.95.96,10.59,2.87,2.61,1.91,4.5,4.83,5.65,8.73h0ZM902.19,268.05l9.62,1.59c-1.26,3.52-3.21,6.21-5.87,8.05-2.66,1.85-5.98,2.76-9.98,2.76-6.33,0-11.02-2.06-14.07-6.2-2.39-3.32-3.59-7.5-3.59-12.55,0-6.03,1.59-10.76,4.74-14.18,3.15-3.41,7.13-5.13,11.96-5.13,5.4,0,9.68,1.8,12.81,5.37,3.13,3.58,4.63,9.05,4.5,16.44h-24.13c.08,2.85.85,5.07,2.33,6.65,1.48,1.59,3.34,2.4,5.57,2.4,1.51,0,2.77-.41,3.78-1.23,1.04-.84,1.81-2.15,2.33-3.98h0ZM902.74,258.32c-.05-2.8-.77-4.92-2.14-6.36-1.37-1.45-3.04-2.18-5.02-2.18-2.11,0-3.84.77-5.21,2.3-1.37,1.52-2.03,3.61-2.03,6.24h14.4ZM939.84,279.62v-50.25h9.87l20.57,33.57v-33.57h9.43v50.25h-10.2l-20.24-32.77v32.77h-9.43ZM1011.44,268.05l9.6,1.59c-1.23,3.52-3.18,6.21-5.84,8.05-2.66,1.85-6.01,2.76-9.98,2.76-6.34,0-11.02-2.06-14.07-6.2-2.39-3.32-3.59-7.5-3.59-12.55,0-6.03,1.56-10.76,4.72-14.18,3.15-3.41,7.16-5.13,11.98-5.13,5.4,0,9.68,1.8,12.81,5.37,3.13,3.58,4.63,9.05,4.5,16.44h-24.13c.05,2.85.85,5.07,2.33,6.65,1.48,1.59,3.35,2.4,5.54,2.4,1.51,0,2.8-.41,3.81-1.23,1.04-.84,1.81-2.15,2.33-3.98h0ZM1011.99,258.32c-.08-2.8-.79-4.92-2.14-6.36-1.37-1.45-3.04-2.18-5.02-2.18-2.11,0-3.84.77-5.21,2.3-1.37,1.52-2.06,3.61-2.03,6.24h14.4ZM1046.1,243.23v7.68h-6.58v14.67c0,2.96.06,4.69.19,5.18.11.49.41.89.85,1.22.44.32.99.48,1.62.48.91,0,2.19-.31,3.89-.92l.82,7.46c-2.25.96-4.77,1.44-7.62,1.44-1.73,0-3.29-.29-4.69-.86-1.4-.59-2.41-1.34-3.07-2.26-.66-.93-1.1-2.18-1.34-3.76-.22-1.12-.3-3.39-.3-6.8v-15.85h-4.44v-7.68h4.44v-7.24l9.65-5.62v12.86h6.58ZM1059.57,279.62l-11.52-36.39h9.35l6.83,23.86,6.28-23.86h9.3l6.06,23.86,6.97-23.86h9.49l-11.68,36.39h-9.27l-6.25-23.41-6.17,23.41h-9.38ZM1105.17,260.91c0-3.2.8-6.29,2.36-9.28,1.56-2.99,3.81-5.29,6.69-6.85,2.91-1.58,6.11-2.37,9.71-2.37,5.48,0,10.01,1.8,13.52,5.37,3.54,3.58,5.29,8.09,5.29,13.56s-1.78,10.06-5.35,13.69c-3.54,3.63-8.01,5.43-13.41,5.43-3.35,0-6.53-.74-9.54-2.25-3.04-1.52-5.35-3.73-6.91-6.64-1.56-2.92-2.36-6.47-2.36-10.65h0ZM1115.04,261.42c0,3.62.85,6.39,2.58,8.31,1.7,1.92,3.81,2.88,6.34,2.88s4.61-.96,6.31-2.88c1.7-1.92,2.58-4.72,2.58-8.36s-.88-6.31-2.58-8.23c-1.7-1.92-3.78-2.88-6.31-2.88s-4.63.96-6.34,2.88c-1.73,1.92-2.58,4.69-2.58,8.28h0ZM1159.5,279.62h-9.63v-36.39h8.94v5.17c1.54-2.46,2.91-4.06,4.11-4.84,1.23-.77,2.63-1.17,4.17-1.17,2.22,0,4.3.62,6.36,1.82l-2.99,8.39c-1.62-1.04-3.13-1.56-4.52-1.56s-2.5.36-3.43,1.11c-.93.73-1.67,2.07-2.22,4.02-.52,1.95-.79,6.02-.79,12.2v11.24h0ZM1177.24,279.62v-50.25h9.65v26.67l11.27-12.81h11.85l-12.42,13.29,13.33,23.1h-10.39l-9.16-16.34-4.47,4.69v11.66h-9.65ZM474.56,339.34c0-3.19.8-6.29,2.36-9.3,1.59-2.98,3.81-5.28,6.72-6.84,2.88-1.58,6.12-2.37,9.68-2.37,5.51,0,10.01,1.8,13.55,5.38,3.51,3.58,5.27,8.09,5.27,13.56s-1.78,10.06-5.32,13.68c-3.56,3.62-8.03,5.43-13.41,5.43-3.34,0-6.53-.75-9.57-2.26-3.02-1.51-5.32-3.72-6.91-6.62-1.56-2.92-2.36-6.47-2.36-10.65h0ZM484.44,339.85c0,3.62.85,6.39,2.58,8.31,1.7,1.92,3.84,2.87,6.33,2.87s4.63-.95,6.34-2.87c1.7-1.92,2.55-4.72,2.55-8.38s-.85-6.29-2.55-8.21c-1.7-1.92-3.81-2.88-6.34-2.88s-4.63.96-6.33,2.88c-1.73,1.92-2.58,4.69-2.58,8.28h0ZM515.45,321.66h5.35v-2.76c0-3.06.33-5.35.99-6.86.66-1.51,1.86-2.74,3.59-3.69,1.76-.95,3.98-1.41,6.64-1.41s5.43.41,8.06,1.22l-1.29,6.73c-1.54-.37-3.02-.55-4.44-.55s-2.39.32-2.99.97c-.6.66-.91,1.91-.91,3.76v2.58h7.18v7.57h-7.18v28.82h-9.65v-28.82h-5.35v-7.57h0ZM586.01,339.58v-8.47h21.88v20.02c-2.14,2.06-5.21,3.88-9.24,5.44-4.06,1.55-8.14,2.33-12.26,2.33-5.27,0-9.85-1.1-13.77-3.29-3.89-2.21-6.83-5.36-8.8-9.46-1.98-4.11-2.93-8.57-2.93-13.4,0-5.22,1.1-9.89,3.29-13.94,2.19-4.07,5.4-7.18,9.62-9.35,3.21-1.67,7.24-2.51,12.04-2.51,6.23,0,11.11,1.3,14.62,3.92,3.51,2.62,5.76,6.24,6.77,10.86l-10.09,1.88c-.71-2.47-2.03-4.42-4-5.85-1.95-1.43-4.39-2.14-7.3-2.14-4.44,0-7.95,1.41-10.59,4.21-2.63,2.82-3.92,6.99-3.92,12.53,0,5.95,1.32,10.43,3.98,13.41,2.66,2.99,6.12,4.47,10.42,4.47,2.14,0,4.25-.41,6.39-1.25,2.14-.84,3.98-1.85,5.51-3.03v-6.38h-11.63ZM638.25,346.48l9.6,1.59c-1.23,3.52-3.18,6.21-5.84,8.04-2.66,1.86-6.01,2.77-10.01,2.77-6.31,0-11-2.06-14.04-6.2-2.41-3.32-3.62-7.5-3.62-12.55,0-6.05,1.59-10.76,4.74-14.18,3.15-3.41,7.16-5.13,11.96-5.13,5.43,0,9.71,1.8,12.83,5.38,3.13,3.58,4.63,9.05,4.5,16.44h-24.13c.05,2.85.82,5.07,2.33,6.65,1.48,1.59,3.35,2.39,5.54,2.39,1.51,0,2.77-.4,3.81-1.22,1.02-.84,1.81-2.17,2.33-3.98h0ZM638.8,336.75c-.08-2.8-.79-4.92-2.17-6.38-1.37-1.44-3.04-2.18-4.99-2.18-2.11,0-3.84.78-5.21,2.3-1.37,1.54-2.06,3.62-2.03,6.25h14.4ZM653.99,339.34c0-3.19.8-6.29,2.36-9.3,1.56-2.98,3.81-5.28,6.69-6.84,2.91-1.58,6.11-2.37,9.71-2.37,5.48,0,10.01,1.8,13.52,5.38,3.54,3.58,5.29,8.09,5.29,13.56s-1.78,10.06-5.35,13.68c-3.54,3.62-8.01,5.43-13.41,5.43-3.35,0-6.53-.75-9.54-2.26-3.04-1.51-5.35-3.72-6.91-6.62-1.56-2.92-2.36-6.47-2.36-10.65h0ZM663.87,339.85c0,3.62.85,6.39,2.58,8.31,1.7,1.92,3.81,2.87,6.33,2.87s4.61-.95,6.31-2.87c1.7-1.92,2.58-4.72,2.58-8.38s-.88-6.29-2.58-8.21c-1.7-1.92-3.78-2.88-6.31-2.88s-4.63.96-6.33,2.88c-1.73,1.92-2.58,4.69-2.58,8.28h0ZM708.32,358.05h-9.63v-36.39h8.94v5.17c1.53-2.45,2.91-4.07,4.11-4.84,1.23-.77,2.63-1.17,4.17-1.17,2.22,0,4.3.62,6.36,1.82l-2.99,8.39c-1.62-1.04-3.13-1.56-4.52-1.56s-2.5.36-3.43,1.11c-.93.73-1.67,2.07-2.22,4.02-.52,1.95-.79,6.02-.79,12.2v11.24h0ZM725.54,360.45l10.98,1.33c.19,1.29.6,2.17,1.26,2.65.91.7,2.36,1.03,4.33,1.03,2.5,0,4.39-.37,5.65-1.12.85-.51,1.48-1.32,1.92-2.44.3-.8.44-2.26.44-4.42v-5.32c-2.88,3.94-6.5,5.9-10.89,5.9-4.91,0-8.76-2.07-11.61-6.2-2.25-3.28-3.37-7.34-3.37-12.2,0-6.12,1.48-10.76,4.42-14,2.93-3.22,6.57-4.83,10.96-4.83s8.2,1.97,11.13,5.94v-5.1h9v32.66c0,4.29-.33,7.5-1.04,9.63-.71,2.14-1.7,3.8-2.99,5.02-1.29,1.21-2.99,2.14-5.13,2.84-2.14.67-4.83,1.03-8.09,1.03-6.2,0-10.57-1.07-13.12-3.17-2.61-2.13-3.89-4.8-3.89-8.05,0-.32.03-.71.05-1.17h0ZM734.14,339.1c0,3.87.74,6.69,2.22,8.47,1.51,1.8,3.34,2.7,5.54,2.7,2.36,0,4.36-.92,5.98-2.77,1.62-1.82,2.44-4.57,2.44-8.17s-.79-6.57-2.36-8.39c-1.54-1.84-3.51-2.76-5.87-2.76s-4.22.9-5.73,2.7c-1.48,1.8-2.22,4.52-2.22,8.21h0ZM769.29,316.73v-8.93h9.62v8.93h-9.62ZM769.29,358.05v-36.39h9.62v36.39h-9.62ZM796,332.76l-8.75-1.58c.99-3.51,2.66-6.12,5.07-7.82,2.41-1.69,5.95-2.54,10.69-2.54,4.3,0,7.49.51,9.6,1.54,2.08,1.01,3.59,2.3,4.44,3.87.85,1.58,1.29,4.44,1.29,8.62l-.11,11.24c0,3.19.14,5.57.47,7.08.3,1.51.88,3.15,1.73,4.88h-9.54c-.25-.63-.55-1.59-.9-2.84-.16-.58-.27-.95-.36-1.14-1.65,1.6-3.4,2.8-5.27,3.61-1.86.8-3.87,1.19-6.01,1.19-3.76,0-6.72-1.01-8.86-3.04-2.17-2.03-3.24-4.61-3.24-7.72,0-2.04.49-3.88,1.48-5.5.96-1.62,2.36-2.85,4.11-3.7,1.78-.85,4.33-1.6,7.68-2.25,4.47-.84,7.6-1.63,9.35-2.36v-.96c0-1.86-.47-3.17-1.37-3.96-.93-.78-2.63-1.19-5.18-1.19-1.73,0-3.04.36-4,1.03-.96.67-1.76,1.85-2.33,3.54h0ZM808.89,340.59c-1.23.4-3.21.89-5.87,1.47-2.69.58-4.42,1.14-5.24,1.67-1.26.89-1.89,2.02-1.89,3.39s.49,2.52,1.51,3.51c1.02.97,2.28,1.47,3.84,1.47,1.73,0,3.4-.58,4.96-1.71,1.18-.85,1.95-1.92,2.3-3.18.25-.82.38-2.4.38-4.7v-1.91Z" fill="#2e3191" fill-rule="evenodd"/><rect x="477.83" y="169.3" width="883.53" height="28.08" fill="#2e3191"/><path d="M424.84,57.47c-14.69-29.05-40.59-48.56-71.07-53.52-35.05-5.71-78.7-8.92-105.51,17.22-30.09,29.3-17.56,77.67-5.53,111.5,5.75,16.16,14.07,31.28,22.13,45.9,9.58,17.41,19.5,35.41,24.89,54.99,4.5,16.41-2.28,35.49-15.73,44.36l-6.99,4.33-18.18,6.69c-.21.05-.41.09-.61.14l-21.26,3.1-2.41.21-21.53-2.51-18.06-6.73c-18.02-7.27-30.9-28.92-28.11-47.25,2.19-14.34,11.85-25.15,22.09-36.6,7.95-8.88,16.17-18.06,20.59-29.09,16.58-41.23-3.78-82.02-21.73-118.01l-1.24-2.49C157.49,11.46,109.84-3.8,72.64.94,37.33,5.43,13.23,26.1,6.51,57.68c-8.82,41.51-15.53,99.06,27.9,119.5,17.76,8.36,40.09,7.21,61.3-3.15,22.1-10.81,38.01-29.29,42.54-49.46,4.43-19.71-5.79-43.77-25.42-59.85-16.88-13.83-36.62-17.79-52.8-10.57-18.36,8.18-27.72,26.89-23.85,47.66,3.44,18.46,17.78,37.64,42.08,38.88,8.68.34,18.12-5.1,22.21-12.87,3.15-5.99,2.63-12.24-1.48-17.61-4.31-5.66-10.54-6.25-16.56-6.82l-2.87-.28v3.52l1.25.22c4.43.76,12.27,2.79,15,7.8,1.39,2.54,1.31,5.67-.23,9.31-2.13,5.04-5.62,8.01-10.36,8.82-10.49,1.82-24.11-6.95-30.04-13.42-12.11-13.25-9.16-32.1-.23-43.1,8.72-10.72,21.24-12.84,33.5-5.62,16.08,9.5,26.96,22.03,29.85,34.4,2,8.52.29,17-5.04,25.19-8.82,13.55-26.64,25.05-43.35,27.96-11.48,2.01-21.62-.08-29.41-5.99-23.55-17.9-14.81-59.21-9.58-83.88l.94-4.44c5.85-28.42,29.51-36.1,43.09-38.15,32.22-4.84,69.24,10.91,82.54,35.14,1.31,2.38,2.63,4.74,3.94,7.11,14.16,25.45,27.53,49.48,26.42,79.16-.64,17.25-11.09,32.01-21.19,46.29-13.8,19.5-28.07,39.67-16.08,65.64,6.33,13.73,19.18,25.72,32,29.86l19.5,5.68,10.3.46c.19.02.37.04.56.06.84.08,1.7.05,2.54.11-.32-.02-.64-.03-.96-.05.68.05,1.37.03,2.05.07l.93.04c-.67-.03-1.35-.02-2.02-.06,2.3.15,4.59.38,6.91.38.31,0,.64-.05.95-.06l1.3.06.58-.09c1.37-.04,2.76-.25,4.13-.34-.15,0-.29.02-.44.03.68-.04,1.36-.11,2.04-.16-.53.04-1.07.1-1.6.13,2.43-.16,4.84-.26,7.29-.58.28-.04.56-.06.84-.1.19-.03.38-.06.57-.09l11.55-.86,19.97-5.73,8.06-4.2c16.89-9.54,26.59-31.85,22.57-51.9-4.63-23.09-14.31-44.61-23.67-65.42-10.21-22.69-20.76-46.15-24.8-71.7-2.78-17.67-5.06-59.61,33.61-67.37,35.18-7.08,85.12-3.29,109.95,30.69,24.55,33.58,18.89,79.77-13.17,107.43-11.39,9.79-27.99,1.06-38.74-9.43-20.02-19.53-32.05-44.73-32.2-67.41-.05-6.88,2.1-12.69,6.21-16.8,4.48-4.49,11.16-6.9,18.92-6.8,18.34.09,40.26,4.24,40.56,23.54.38,23.36-4.95,36.71-15.86,39.64-6.12,1.65-11.15.99-14.93-2-8.74-6.89-9.23-24.25-9.04-31.39l-3.02-.19c-1.17,11.75-3.35,33.61,15.66,39.79,8.77,2.85,16.38,1.6,22.62-3.72,12.86-10.95,16.51-37.45,14.21-52.36-2.23-14.54-19.65-21.49-24.93-23.27-19.77-6.66-39.87-5.55-52.47,2.9-9.55,6.4-14.83,16.44-15.7,29.84-2.36,36.27,20.12,78.41,52.28,98,11.59,7.06,23.69,8.89,35.96,5.41,17.03-4.81,33.51-19.99,44.09-40.62,14.54-28.4,14.22-63.17-.86-93Z" fill="#ec1c24"/><path d="M413.95,203.14c-17.76-8.37-40.12-7.21-61.34,3.17-22.1,10.8-37.99,29.29-42.53,49.43-4.43,19.72,5.79,43.77,25.42,59.85,16.89,13.83,36.64,17.77,52.83,10.57,18.35-8.19,27.7-26.89,23.84-47.65-3.43-18.47-17.78-37.65-42.09-38.89-.32-.03-.64-.03-.95-.03-8.32,0-17.31,5.4-21.25,12.89-3.15,5.99-2.63,12.24,1.48,17.62,4.31,5.65,10.54,6.25,16.56,6.83l2.87.27v-3.54l-1.25-.22c-4.43-.77-12.26-2.8-15-7.8-1.38-2.55-1.31-5.68.23-9.31,2.13-5.05,5.62-8.01,10.37-8.82,10.48-1.85,24.11,6.94,30.04,13.42,12.11,13.23,9.17,32.07.25,43.08-8.73,10.75-21.27,12.85-33.52,5.64-16.07-9.49-26.95-22.02-29.85-34.37-2-8.53-.3-17.02,5.04-25.22,8.84-13.56,26.68-25.05,43.38-27.96,11.46-1.95,21.6.1,29.38,6.01,23.52,17.87,14.82,59.12,9.63,83.79l-.95,4.54c-5.87,28.42-29.54,36.1-43.13,38.15-32.15,4.83-69.22-10.91-82.53-35.14l-3.9-7.05c-14.17-25.46-27.55-49.53-26.46-79.24.64-17.24,11.09-32,21.19-46.28,13.8-19.51,28.07-39.68,16.08-65.66-6.33-13.7-19.18-25.7-32-29.86l-19.5-5.67-22.52-1-24.97,2.04-20,5.74-8.06,4.19c-16.89,9.55-26.59,31.86-22.57,51.9,4.63,23.09,14.31,44.61,23.67,65.42,10.21,22.69,20.76,46.15,24.8,71.72,2.78,17.67,5.06,59.62-33.61,67.36-35.17,7.08-85.11,3.29-109.95-30.67-24.56-33.59-18.89-79.77,13.17-107.43,11.39-9.8,27.99-1.07,38.74,9.42,20.01,19.5,32.06,44.69,32.23,67.41.05,6.87-2.1,12.67-6.2,16.78-4.45,4.46-10.92,6.8-18.72,6.8h-.21c-18.35-.07-40.29-4.21-40.59-23.52-.38-23.36,4.95-36.71,15.86-39.64,6.12-1.65,11.17-.97,14.95,2,8.73,6.87,9.22,24.23,9.03,31.37l3.02.19c1.17-11.75,3.35-33.62-15.66-39.79-8.76-2.84-16.37-1.6-22.62,3.72-12.86,10.96-16.51,37.45-14.21,52.36,2.23,14.53,19.67,21.5,24.95,23.28,19.75,6.65,39.84,5.54,52.45-2.91,9.55-6.4,14.83-16.44,15.7-29.85,2.36-36.28-20.12-78.4-52.28-97.99-11.59-7.05-23.67-8.87-35.95-5.41-17.04,4.81-33.51,19.99-44.07,40.61-14.55,28.4-14.24,63.17.84,93.01,14.69,29.05,40.59,48.57,71.08,53.52,13.2,2.15,27.63,3.94,41.92,3.94,23.63,0,46.89-4.9,63.59-21.17,30.1-29.27,17.57-77.65,5.53-111.49-5.75-16.15-14.07-31.26-22.12-45.88-9.58-17.41-19.5-35.42-24.88-55.02-4.53-16.41,2.25-35.49,15.73-44.36l6.97-4.33,18.4-6.75,21.65-3.17,2.41-.21,21.53,2.52,18.06,6.73c18.02,7.26,30.9,28.9,28.11,47.26-2.17,14.35-11.85,25.15-22.1,36.6-7.95,8.87-16.16,18.05-20.59,29.08-16.58,41.24,3.78,82.04,21.73,118.02l1.24,2.48c19.09,38.26,66.72,53.45,103.93,48.77,35.3-4.48,59.41-25.16,66.13-56.72,8.85-41.49,15.59-99.02-27.88-119.5Z" fill="#2e3191"/></svg>